# xmcd CD database file
#
# Track frame offsets:
#	150
#	22887
#	33851
#	54754
#	80472
#	96173
#	112168
#	133052
#	156187
#	170681
#	189270
#
# Disc length: 2903 seconds
#
# Revision: 3
# Processed by: cddbd v1.5.1PL2 Copyright (c) Steve Scherf et al.
# Submitted via: CDex 1.51
#
DISCID=830b550b
DTITLE=Buddy Guy - Feels Like Rain
DYEAR=1993
DGENRE=Blues
TTITLE0=She's A Superstar
TTITLE1=I Go Crazy
TTITLE2=Feels Like Rain
TTITLE3=She's Nineteen Years Old
TTITLE4=Some Kind Of Wonderful
TTITLE5=Sufferin' Mind
TTITLE6=Change In The Weather
TTITLE7=I Could Cry
TTITLE8=Mary Ann
TTITLE9=Trouble Man
TTITLE10=Country Man
EXTD=YEAR: 1993
EXTT0=
EXTT1=
EXTT2=
EXTT3=
EXTT4=
EXTT5=
EXTT6=
EXTT7=
EXTT8=
EXTT9=
EXTT10=
PLAYORDER=
